<?xml version="1.0" encoding="utf-8"?>
<!-- Generator: Adobe Illustrator 15.0.0, SVG Export Plug-In . SVG Version: 6.00 Build 0)  -->
<!DOCTYPE svg PUBLIC "-//W3C//DTD SVG 1.1//EN" "http://www.w3.org/Graphics/SVG/1.1/DTD/svg11.dtd">
<svg version="1.1" id="Layer_1" xmlns="http://www.w3.org/2000/svg" xmlns:xlink="http://www.w3.org/1999/xlink" x="0px" y="0px"
	 width="100px" height="100px" viewBox="0 0 100 100" enable-background="new 0 0 100 100" xml:space="preserve">
<g>
	<circle fill="none" stroke="#FFFFFF" stroke-width="8.935" stroke-miterlimit="10" cx="51.314" cy="54.517" r="30.527"/>
	<polygon fill="#FFFFFF" stroke="#000000" stroke-width="0.0628" stroke-miterlimit="10" points="58.809,47.421 58.346,44.748 
		68.938,37.291 	"/>
	<polygon fill="#FFFFFF" stroke="#000000" stroke-width="0.0628" stroke-miterlimit="10" points="58.85,47.466 61.503,47.958 
		68.979,37.336 	"/>
	<polygon fill="#FFFFFF" stroke="#000000" stroke-width="0.0628" stroke-miterlimit="10" points="44.548,47.443 41.875,47.906 
		34.419,37.314 	"/>
	<polygon fill="#FFFFFF" stroke="#000000" stroke-width="0.0628" stroke-miterlimit="10" points="44.593,47.399 45.082,44.745 
		34.463,37.27 	"/>
	<polygon fill="#FFFFFF" stroke="#000000" stroke-width="0.0628" stroke-miterlimit="10" points="58.641,61.64 58.174,64.31 
		68.768,71.767 	"/>
	<polygon fill="#FFFFFF" stroke="#000000" stroke-width="0.0628" stroke-miterlimit="10" points="58.684,61.593 61.336,61.103 
		68.812,71.722 	"/>
	<polygon fill="#FFFFFF" stroke="#000000" stroke-width="0.0628" stroke-miterlimit="10" points="44.462,61.513 41.791,61.048 
		34.334,71.64 	"/>
	<polygon fill="#FFFFFF" stroke="#000000" stroke-width="0.0628" stroke-miterlimit="10" points="44.508,61.558 44.998,64.208 
		34.378,71.687 	"/>
	<polygon fill="#FFFFFF" stroke="#1A171B" stroke-width="0.419" stroke-miterlimit="10" points="51.5,54.518 44.521,61.423 
		51.5,102.269 	"/>
	<polygon fill="#FFFFFF" points="51.71,54.518 58.689,61.423 51.71,102.269 	"/>
	<polygon fill="#FFFFFF" points="51.816,54.307 58.725,47.327 99.564,54.307 	"/>
	<polygon fill="#FFFFFF" stroke="#000000" stroke-width="0.2095" stroke-miterlimit="10" points="51.816,54.518 58.725,61.495 
		99.564,54.518 	"/>
	<polygon fill="#FFFFFF" stroke="#000000" stroke-width="0.2095" stroke-miterlimit="10" points="51.312,54.307 44.407,47.327 
		3.564,54.307 	"/>
	<polygon fill="#FFFFFF" points="51.312,54.518 44.407,61.495 3.564,54.518 	"/>
	<polygon fill="#FFFFFF" stroke="#000000" stroke-width="0.2095" stroke-miterlimit="10" points="51.71,54.307 58.689,47.401 
		51.71,6.559 	"/>
	<polygon fill="#FFFFFF" points="51.5,54.307 44.521,47.401 51.5,6.559 	"/>
</g>
</svg>
